<?xml version="1.0" encoding="UTF-8"?>
<svg version="1.1" xmlns="http://www.w3.org/2000/svg" width="1057" height="762">
<path d="M0 0 C348.81 0 697.62 0 1057 0 C1057 251.46 1057 502.92 1057 762 C708.19 762 359.38 762 0 762 C0 510.54 0 259.08 0 0 Z " fill="#E7FEFB" transform="translate(0,0)"/>
<path d="M0 0 C1.06293274 0.00173721 1.06293274 0.00173721 2.14733887 0.00350952 C40.33361931 0.12593572 81.82289467 9.6991454 111.9375 34.3125 C112.95199219 35.11558594 113.96648437 35.91867187 115.01171875 36.74609375 C120.92846317 41.48821042 126.22926699 46.36691399 130.9375 52.3125 C131.67097656 53.19808594 132.40445312 54.08367187 133.16015625 54.99609375 C148.12740631 73.61620674 159.88376148 95.67337015 167.625 118.25 C167.86911621 118.9527002 168.11323242 119.65540039 168.36474609 120.37939453 C169.89440372 125.16231647 170.1448982 129.29570558 169.9375 134.3125 C170.5975 134.3125 171.2575 134.3125 171.9375 134.3125 C176.6660064 161.79694343 174.51142991 188.99335079 158.32568359 212.42285156 C150.19712238 223.48775902 141.30770648 231.37235134 128.9375 237.3125 C127.98230469 237.82941406 127.02710938 238.34632813 126.04296875 238.87890625 C106.74738544 247.7864271 82.57969175 246.06814187 63.0625 239 C37.81236948 228.52057391 22.24238384 207.35196083 8.625 184.6875 C8.24077881 184.05626221 7.85655762 183.42502441 7.46069336 182.7746582 C0.43768976 170.7940628 -4.00789824 157.38079967 -8.66162109 144.34692383 C-15.85009289 124.27487111 -24.62075886 105.63476901 -44.6875 96 C-60.84786584 88.54588452 -81.94754607 91.14337061 -98.19580078 97.09375 C-123.53355054 106.74835454 -146.81446783 124.8619478 -161.78515625 147.51171875 C-162.20667969 148.10597656 -162.62820313 148.70023438 -163.0625 149.3125 C-163.3925 149.3125 -163.7225 149.3125 -164.0625 149.3125 C-165.27736207 138.4462337 -161.99243819 128.89516962 -158.77856445 118.64208984 C-158.158465 116.62470526 -157.59893342 114.58889143 -157.05078125 112.55078125 C-156.0389733 109.23541052 -154.72876432 106.38128059 -153.125 103.3125 C-151.48976153 100.14029461 -149.96143844 97.06204308 -148.625 93.75 C-142.3360291 79.91426402 -131.48934281 68.83554227 -121.30859375 57.78125 C-119.43894655 55.72626386 -117.65192275 53.63411587 -115.875 51.5 C-96.20789976 28.9638169 -71.02686293 11.95644185 -42 4.5 C-41.24630127 4.3050293 -40.49260254 4.11005859 -39.71606445 3.90917969 C-26.63611594 0.7789356 -13.40345827 -0.06874076 0 0 Z " fill="#E7FDFB" transform="translate(863.0625,306.6875)"/>
<path d="M0 0 C14.64573741 12.7325555 21.18062309 29.82357709 27.45947266 47.72363281 C28.66729056 51.12951016 29.94643711 54.50752011 31.2265625 57.88671875 C31.5565625 58.77875 31.8865625 59.67078125 32.2265625 60.58984375 C38.04904366 75.41897545 46.07386412 89.61102779 56.2265625 101.88671875 C56.66500488 102.42377441 57.10344727 102.96083008 57.55517578 103.51416016 C60.70836142 107.36977174 63.93830895 111.14559196 67.2265625 114.88671875 C67.88140625 115.63953125 68.53625 116.39234375 69.2109375 117.16796875 C82.18050689 131.13519732 103.40759211 140.88224697 122.30322266 142.01074219 C146.58649599 142.88358228 169.87807995 137.51868607 188.8125 121.73046875 C194.00039066 116.84358199 197.82943552 111.32212192 201.59765625 105.29296875 C203.2265625 102.88671875 203.2265625 102.88671875 205.2265625 101.88671875 C197.1393077 127.42541813 182.70225658 148.70042105 164.2265625 167.88671875 C163.6490625 168.51578125 163.0715625 169.14484375 162.4765625 169.79296875 C156.72462762 175.89001972 149.93256312 180.89616595 143.2265625 185.88671875 C142.65437988 186.31388184 142.08219727 186.74104492 141.49267578 187.18115234 C120.13453335 202.86996883 95.27046829 211.90829243 69.2265625 215.88671875 C68.20183838 216.05445801 67.17711426 216.22219727 66.12133789 216.39501953 C44.39553052 219.77885674 22.66373458 218.46536189 1.2265625 213.88671875 C0.24461914 213.67772949 -0.73732422 213.46874023 -1.74902344 213.25341797 C-41.58631733 204.46287461 -76.18603246 183.25914425 -98.5078125 148.72265625 C-100.58632364 145.43777875 -102.61659951 142.12576614 -104.61279297 138.7902832 C-105.40900708 137.48441837 -106.22705573 136.1916918 -107.06298828 134.91088867 C-109.99059013 130.41097501 -112.11937593 126.00800071 -113.8984375 120.94921875 C-114.27572998 119.90761597 -114.27572998 119.90761597 -114.66064453 118.8449707 C-115.37500859 116.86229794 -116.07598795 114.87539248 -116.7734375 112.88671875 C-117.11890625 111.91992188 -117.464375 110.953125 -117.8203125 109.95703125 C-118.90930008 106.82362358 -119.7734375 104.22718557 -119.7734375 100.88671875 C-120.4334375 100.88671875 -121.0934375 100.88671875 -121.7734375 100.88671875 C-122.42249302 97.22061501 -123.06709219 93.5537408 -123.7109375 89.88671875 C-123.89333984 88.85675781 -124.07574219 87.82679688 -124.26367188 86.765625 C-129.59216931 56.34474874 -129.59216931 56.34474874 -121.921875 45.1953125 C-114.61483902 35.08681573 -106.43327345 25.80370522 -96.7734375 17.88671875 C-96.05027344 17.26410156 -95.32710937 16.64148438 -94.58203125 16 C-69.42765941 -5.09320472 -29.51197537 -22.48729391 0 0 Z " fill="#E7FDFB" transform="translate(825.7734375,413.11328125)"/>
<path d="M0 0 C3.98985647 3.39684587 7.80567182 6.96792199 11.56738281 10.61425781 C12.8526861 11.85750618 14.15573077 13.08235104 15.4609375 14.3046875 C26.03540077 24.43391021 33.85721463 36.31835747 41 49 C41.38043457 49.66515625 41.76086914 50.3303125 42.15283203 51.015625 C48.36191689 61.93819475 52.97049996 73.11195069 57 85 C57.37253906 86.0725 57.74507812 87.145 58.12890625 88.25 C58.9278207 90.77213352 59.51735692 93.21398412 60 95.8125 C60.66539926 99.36845864 60.66539926 99.36845864 61.4818573 102.89164734 C62.92267714 108.69807438 63.30693026 114.15726357 63.30078125 120.125 C63.30506638 121.07076904 63.3093515 122.01653809 63.31376648 122.9909668 C63.31947849 124.98436692 63.32003329 126.97778787 63.31567383 128.97119141 C63.31253747 131.96424614 63.33593087 134.95628748 63.36132812 137.94921875 C63.42636233 157.65182627 60.81011525 177.12884849 52 195 C51.46890625 196.14597656 50.9378125 197.29195312 50.390625 198.47265625 C42.61624143 214.95999747 32.37373829 229.64519227 20 243 C19.53158691 243.51224121 19.06317383 244.02448242 18.58056641 244.55224609 C1.28196463 263.2939012 -21.19719614 277.96229081 -45 287 C-45.67111816 287.25974609 -46.34223633 287.51949219 -47.03369141 287.78710938 C-64.71678811 294.51324618 -83.89557293 298.71224813 -102.84521484 298.96923828 C-105.18585603 299.00265328 -107.5235819 299.07858389 -109.86328125 299.15234375 C-143.44026386 299.94693306 -174.46074789 291.63796534 -204 276 C-205.05058594 275.44570313 -206.10117187 274.89140625 -207.18359375 274.3203125 C-228.14712362 262.68318702 -245.25535302 245.14419693 -258 225 C-258.48871582 224.23252441 -258.97743164 223.46504883 -259.48095703 222.67431641 C-265.78898717 212.63721836 -270.733659 202.75219154 -274.22265625 191.42773438 C-275.09516566 188.70278664 -276.05950826 186.01924003 -277.03125 183.328125 C-286.98105917 155.15165431 -290.99527087 120.17519597 -283 91 C-282.80132324 90.22543457 -282.60264648 89.45086914 -282.39794922 88.65283203 C-276.15766822 64.49102491 -263.42175022 46.41805739 -247 28 C-246.52868652 27.46552246 -246.05737305 26.93104492 -245.57177734 26.38037109 C-215.80008874 -7.28493661 -184.21780859 -28.0237433 -139.3203125 -33.7019043 C-137.27284013 -33.96494762 -135.2296922 -34.26119295 -133.1875 -34.5625 C-87.89252722 -40.09440848 -35.80254288 -28.9469545 0 0 Z M-190 -13 C-190.60392578 -12.65066406 -191.20785156 -12.30132812 -191.83007812 -11.94140625 C-210.73271148 -0.80781638 -227.94339609 15.28032856 -242 32 C-242.721875 32.85722656 -243.44375 33.71445312 -244.1875 34.59765625 C-248.31594421 39.57902557 -252.33468368 44.64787405 -256.3125 49.75 C-257.51326172 51.28914063 -257.51326172 51.28914063 -258.73828125 52.859375 C-262.19683819 57.66193075 -264.92776302 62.5873881 -267.15625 68.0859375 C-268 70 -268 70 -269.15625 72.1015625 C-273.01281679 79.1327422 -274.77970633 86.37718747 -276.54589844 94.12255859 C-277.16931207 96.70000529 -277.96571124 99.21755359 -278.75 101.75 C-280.36723549 107.49337144 -280.27910364 113.07680059 -280 119 C-277.53753725 116.65084075 -275.46704205 114.11927406 -273.375 111.4375 C-254.95225401 88.36727363 -229.36865782 68.32373156 -199.72265625 62.39453125 C-180.47508012 60.35465172 -162.43672 61.62724413 -146.6875 74.0625 C-133.9554477 86.33304934 -127.83178174 104.73684035 -122.08081055 120.95361328 C-117.19754656 134.71075636 -111.73980237 147.55323318 -104 160 C-103.62746094 160.60457031 -103.25492188 161.20914063 -102.87109375 161.83203125 C-98.43022322 168.96036587 -93.43228539 175.60219171 -88 182 C-87.18917969 182.969375 -86.37835937 183.93875 -85.54296875 184.9375 C-71.08755913 201.75413038 -52.23034142 211.88367353 -30 214 C-8.1189561 215.46275067 12.50432795 211.23393415 29.5 196.625 C40.93815547 185.40009828 49.30557381 172.83194456 54.4375 157.6875 C54.68459717 156.95909912 54.93169434 156.23069824 55.1862793 155.48022461 C57.86231236 147.05525208 58.19403614 138.66201954 58.1875 129.875 C58.18814453 128.96790283 58.18878906 128.06080566 58.18945312 127.1262207 C58.12865191 119.2849366 57.32910164 111.72540327 56 104 C55.34 104 54.68 104 54 104 C54.04640625 102.84371094 54.0928125 101.68742188 54.140625 100.49609375 C54.12903395 96.09052873 53.18333017 92.20910831 51.75 88.0625 C51.49114014 87.30453125 51.23228027 86.5465625 50.96557617 85.765625 C42.73459609 62.74549893 30.54715605 40.86005676 15 22 C14.00226563 20.77216797 14.00226563 20.77216797 12.984375 19.51953125 C7.93529839 13.55710542 2.16954401 8.76620807 -4 4 C-4.79535156 3.35417969 -5.59070313 2.70835937 -6.41015625 2.04296875 C-27.01785627 -13.99249989 -55.14500922 -24.78211695 -81 -28 C-82.25296875 -28.19980469 -83.5059375 -28.39960938 -84.796875 -28.60546875 C-119.77370025 -33.78581561 -159.00763074 -30.98281999 -190 -13 Z M-252.60546875 96.80078125 C-254.11691964 98.18894903 -255.65835854 99.54575969 -257.23828125 100.85546875 C-265.05749744 107.36916749 -278.62550054 120.48912179 -280 131 C-280.81322198 142.88555206 -279.02691783 154.32169804 -277 166 C-276.78730469 167.2271875 -276.57460938 168.454375 -276.35546875 169.71875 C-275.92007038 172.1494632 -275.4725149 174.57627652 -275 177 C-274.34 177 -273.68 177 -273 177 C-272.79375 178.175625 -272.5875 179.35125 -272.375 180.5625 C-270.80922618 187.67043727 -267.81318395 194.31421423 -265 201 C-264.52820313 202.15757812 -264.05640625 203.31515625 -263.5703125 204.5078125 C-261.88042976 208.26590995 -259.95002906 211.73419368 -257.8125 215.25 C-257.41595215 215.90403809 -257.0194043 216.55807617 -256.61083984 217.23193359 C-240.09090323 244.15013905 -218.58236697 264.52460491 -190 278 C-188.95199219 278.4947583 -188.95199219 278.4947583 -187.8828125 278.99951172 C-177.89441498 283.57513539 -167.47838544 286.30599957 -156.8125 288.8125 C-155.57781982 289.10278076 -154.34313965 289.39306152 -153.07104492 289.69213867 C-106.23837106 300.231745 -57.66612379 292.7031183 -17 267 C-12.84766761 264.17277247 -8.90147651 261.16279696 -5 258 C-4.4730957 257.57460938 -3.94619141 257.14921875 -3.40332031 256.7109375 C8.89232753 246.72847682 19.77449054 235.90846333 29 223 C29.63252686 222.11803955 29.63252686 222.11803955 30.27783203 221.21826172 C39.12784996 208.74641001 47.36163878 194.65012452 52 180 C51.67 179.34 51.34 178.68 51 178 C50.25556641 179.051875 50.25556641 179.051875 49.49609375 180.125 C34.77025278 200.69088037 17.76194905 212.85961883 -7.5625 217.4375 C-32.11545416 220.27781603 -56.26606162 215.60954152 -76.125 200.1875 C-90.05255437 188.54099391 -100.6468168 174.45029485 -110 159 C-110.36254883 158.40654785 -110.72509766 157.8130957 -111.09863281 157.20166016 C-115.63693483 149.72336284 -119.25847176 142.33327968 -122 134 C-122.70936148 132.10425714 -123.41949066 130.20879111 -124.13647461 128.31591797 C-125.10050135 125.73046202 -126.0232653 123.13196483 -126.9453125 120.53125 C-134.48042822 99.5203701 -142.06413747 80.69819033 -163 70 C-163.62777344 69.67257812 -164.25554687 69.34515625 -164.90234375 69.0078125 C-194.12959752 55.09007261 -231.61967824 77.33522123 -252.60546875 96.80078125 Z " fill="#7F12A4" transform="translate(979,337)"/>
<path d="M0 0 C7.55562296 4.17145011 14.41737385 4.50938954 22.984375 4.43359375 C24.37047588 4.44674523 25.75655084 4.46300607 27.14257812 4.48242188 C30.48671904 4.51737805 33.82774069 4.52141111 37.171875 4.49609375 C37.84061884 6.14108417 38.50681574 7.78711023 39.171875 9.43359375 C39.543125 10.35011719 39.914375 11.26664062 40.296875 12.2109375 C41.171875 14.49609375 41.171875 14.49609375 41.171875 15.49609375 C34.241875 15.49609375 27.311875 15.49609375 20.171875 15.49609375 C20.171875 16.15609375 20.171875 16.81609375 20.171875 17.49609375 C20.831875 17.49609375 21.491875 17.49609375 22.171875 17.49609375 C25.30058593 24.96868459 28.02125601 31.98268089 25.33984375 39.9765625 C19.78338035 51.96291332 8.99204019 57.87624045 -2.828125 62.49609375 C-8.78860508 64.61540432 -14.80373906 66.56749495 -20.828125 68.49609375 C-12.67525055 68.89042867 -5.21105117 67.04836975 2.70898438 65.2734375 C20.11612311 61.55623277 20.11612311 61.55623277 25.70703125 65.10546875 C26.21105469 65.811875 26.71507812 66.51828125 27.234375 67.24609375 C27.76160156 67.9421875 28.28882813 68.63828125 28.83203125 69.35546875 C32.93463642 75.91006826 33.33272769 81.81044834 32.171875 89.49609375 C27.60283851 99.96730735 20.15132864 105.5655182 9.921875 109.87109375 C-0.68786484 113.39287629 -10.76308294 111.98847509 -20.828125 107.49609375 C-27.86660171 103.91617887 -34.05235949 99.87805707 -39.828125 94.49609375 C-39.39759657 89.61970035 -37.34220003 87.5262238 -33.890625 84.18359375 C-32.54677734 82.85908203 -32.54677734 82.85908203 -31.17578125 81.5078125 C-28.828125 79.49609375 -28.828125 79.49609375 -26.828125 79.49609375 C-30.15094815 73.19215622 -33.55870833 67.18816874 -37.82421875 61.46875 C-38.828125 59.49609375 -38.828125 59.49609375 -37.828125 55.49609375 C-32.548125 54.17609375 -27.268125 52.85609375 -21.828125 51.49609375 C-21.828125 50.83609375 -21.828125 50.17609375 -21.828125 49.49609375 C-23.5066763 47.99980196 -25.24771398 46.57316714 -27.015625 45.18359375 C-38.44216221 36.17391448 -38.44216221 36.17391448 -39.828125 29.49609375 C-40.68727392 20.36763653 -39.12259278 13.95861637 -33.265625 6.87109375 C-23.55783145 -3.50063392 -12.58610436 -7.88396967 0 0 Z " fill="#7A06A0" transform="translate(585.828125,297.50390625)"/>
<path d="M0 0 C7.93146485 6.01767914 15.03209021 12.89806308 17 23 C18.57485671 36.81488225 13.59329055 48.83042619 5.21484375 59.62109375 C-0.58439449 65.84990519 -8.11034137 71.1042409 -16.8125 71.625 C-23 71 -23 71 -39 63 C-39 77.19 -39 91.38 -39 106 C-46 105 -46 105 -58 102 C-58 67.02 -58 32.04 -58 -4 C-36.4376648 -9.74995605 -19.39170182 -12.03448509 0 0 Z " fill="#7A059F" transform="translate(300,303)"/>
<path d="M0 0 C2.67499398 0.29722155 5.33387883 0.63565868 8 1 C9.29550781 1.14888672 9.29550781 1.14888672 10.6171875 1.30078125 C11.48601562 1.42839844 12.35484375 1.55601562 13.25 1.6875 C14.05953125 1.79449219 14.8690625 1.90148437 15.703125 2.01171875 C20.12741983 3.91536942 21.63780454 8.09240556 23.34375 12.3671875 C23.7253125 13.52476562 24.106875 14.68234375 24.5 15.875 C26.44688425 21.56834254 26.44688425 21.56834254 29 27 C32.51570232 33.58656067 34.64603068 40.93809204 37 48 C37.66 48 38.32 48 39 48 C39.17015625 47.32195312 39.3403125 46.64390625 39.515625 45.9453125 C40.9972482 40.25524891 42.76930096 34.88838065 45.03125 29.46484375 C45.99962366 27.00095753 46.76980427 24.54377969 47.5 22 C48.75071729 17.6464103 50.35659924 13.5245122 52.08203125 9.33984375 C53.28646515 6.26981863 54.16804573 3.18915803 55 0 C60.36397731 0.38099278 65.70888577 0.8274985 71 1.8125 C71.70125 1.94269531 72.4025 2.07289063 73.125 2.20703125 C76.34301954 3.56798535 77.57557272 6.0776226 78.9921875 9.15625 C79.28351563 9.9296875 79.57484375 10.703125 79.875 11.5 C81.30612241 15.21011735 82.77404573 18.89543031 84.3125 22.5625 C84.725 23.55378906 85.1375 24.54507812 85.5625 25.56640625 C86.65773566 28.18247186 87.76344965 30.79322581 88.875 33.40234375 C89.5210136 34.93481985 90.16684785 36.46737158 90.8125 38 C91.12678955 38.73033447 91.4410791 39.46066895 91.76489258 40.21313477 C93.24701929 43.75041137 94 46.10880549 94 50 C94.66 49.67 95.32 49.34 96 49 C96.77379932 46.53123918 96.77379932 46.53123918 97.375 43.5625 C98.52174421 38.67587141 100.01715387 34.24263552 101.96484375 29.62890625 C103.14735626 26.6257707 104.07762091 23.59268284 105 20.5 C106.47020391 15.57801299 108.16618841 10.85039949 110.16796875 6.12109375 C110.96252988 4.09552242 111.52395457 2.12056603 112 0 C118.84817102 0.48641215 125.33042073 1.35993952 132 3 C131.54588438 8.22232967 130.13917471 12.3664966 128.109375 17.18359375 C126.4806665 21.31844879 125.2650437 25.55866913 124.02734375 29.82421875 C123 33 123 33 121.53515625 36.39453125 C119.90949771 40.21255372 118.67928866 44.02846013 117.5 48 C115.96360941 53.17416703 114.14631716 58.03629495 112 63 C111.04898971 65.62825857 110.17593831 68.27936211 109.3125 70.9375 C108.97508789 71.96327148 108.97508789 71.96327148 108.63085938 73.00976562 C108.08444477 74.67226111 107.54181709 76.33600048 107 78 C92.90293689 77.13018121 92.90293689 77.13018121 87 74 C84.92807491 71.56075301 83.9747801 69.02445284 83 66 C82.75121094 65.26007813 82.50242187 64.52015625 82.24609375 63.7578125 C81.74725556 62.24823935 81.25901208 60.73512529 80.78125 59.21875 C80.00919812 57.02612267 79.07767125 55.05737238 78 53 C76.56018652 50.25077124 75.48279268 47.58865438 74.5625 44.625 C72.94087596 39.46283014 70.52143324 34.77378072 68 30 C66.0496572 32.92551421 65.4377086 34.76899153 64.625 38.125 C63.70862041 41.64389764 62.70931029 44.85416586 61.125 48.125 C58.71266341 53.20846792 57.2983428 58.5556909 55.83837891 63.97314453 C54.69618492 68.09276423 53.35023263 71.38025114 51 75 C50.505 76.485 50.505 76.485 50 78 C47.5916009 77.80893702 45.1967332 77.58212056 42.796875 77.30078125 C40.06747359 76.96061941 40.06747359 76.96061941 37.578125 76.98046875 C34.86836879 76.77957303 33.33120586 76.42824344 31 75 C25.78014897 67.59558354 23.01437201 58.63017768 20.12109375 50.12109375 C18.94663246 46.85142625 17.51293301 43.88772179 15.88671875 40.828125 C14.94819758 38.8932003 14.3156608 36.99329899 13.6875 34.9375 C12.113597 29.92014073 9.82758474 25.26671965 7.55859375 20.53808594 C5.86571656 16.97327723 4.37323675 13.45145409 3.1875 9.6875 C2.31205404 6.00784294 2.31205404 6.00784294 0 4 C0 2.68 0 1.36 0 0 Z " fill="#7B08A0" transform="translate(415,446)"/>
<path d="M0 0 C3.35526245 0.57562065 6.67437782 1.27318041 10 2 C11.69189453 2.33257812 11.69189453 2.33257812 13.41796875 2.671875 C22.06159186 4.74243782 22.06159186 4.74243782 24.5390625 8.0625 C25.56992003 10.67735812 26.28340824 13.28292293 27 16 C27.8046798 18.0116995 28.6390925 20.01171362 29.5 22 C31.36747838 26.46372881 33.18418479 30.94401409 34.96875 35.44140625 C36.11554604 38.28667673 37.30696727 41.11132185 38.5 43.9375 C40.13864574 47.84118512 41.6543923 51.75760053 43.0625 55.75 C44.18258273 58.89967262 45.37079629 61.8608302 46.9375 64.8125 C48.81683477 68.38764075 50.12003542 72.05846979 51.4375 75.875 C53.23568904 81.05931733 55.33082062 85.83028845 57.86328125 90.6875 C60.50060954 96.05278642 62.19915709 100.99384147 62 107 C59.76980273 106.71632132 57.54086546 106.42272612 55.3125 106.125 C54.07113281 105.96257812 52.82976562 105.80015625 51.55078125 105.6328125 C45.39628297 104.53597122 45.39628297 104.53597122 43 103 C41.80610079 100.30562006 40.88985262 97.78776485 40 95 C39.40767104 93.51705162 38.79937982 92.04038539 38.17578125 90.5703125 C37.86962891 89.838125 37.56347656 89.1059375 37.24804688 88.3515625 C36.61422001 86.84308102 35.97875265 85.33528797 35.34179688 83.828125 C33 78.21580157 33 78.21580157 33 76 C20.46 76 7.92 76 -5 76 C-5.99 80.95 -5.99 80.95 -7 86 C-7.96484375 88.8125 -7.96484375 88.8125 -8.9375 91 C-10.75712703 95.28427111 -12.13541301 99.58547341 -13.38671875 104.06640625 C-14 106 -14 106 -15 107 C-20.0566089 107.25506224 -24.51522518 106.62509139 -29.4375 105.5 C-30.67371094 105.2215625 -31.90992188 104.943125 -33.18359375 104.65625 C-34.11300781 104.4396875 -35.04242188 104.223125 -36 104 C-37.4851201 99.4031997 -35.75406889 96.28369717 -34 92 C-33.3885154 90.33600429 -32.7848677 88.66911563 -32.1875 87 C-30.62822127 82.69486759 -29.02506559 78.40806829 -27.40625 74.125 C-23.26653791 63.12295886 -19.29970802 52.05797113 -15.3125 41 C-14.17145912 37.83718261 -13.03012441 34.674472 -11.88822937 31.51196289 C-11.18425354 29.56212359 -10.48078022 27.61210275 -9.77790833 25.66186523 C-7.21840736 18.57027039 -4.62962463 11.49424046 -1.8125 4.5 C-1.46832031 3.6440625 -1.12414062 2.788125 -0.76953125 1.90625 C-0.38861328 0.96265625 -0.38861328 0.96265625 0 0 Z " fill="#7B08A0" transform="translate(349,417)"/>
<path d="M0 0 C-0.33 2.31 -0.66 4.62 -1 7 C-2.50050978 6.71096738 -4.00037738 6.41860081 -5.5 6.125 C-6.3353125 5.96257812 -7.170625 5.80015625 -8.03125 5.6328125 C-10.31035177 5.14700397 -12.56970615 4.56780864 -14.81640625 3.94921875 C-23.95130422 1.64662941 -36.64958467 1.21378633 -45 6 C-50.68280847 9.86349209 -54.90358145 14.36726335 -57 21 C-57.34820304 23.3311607 -57.68279107 25.66441998 -58 28 C-57.15887917 27.99000725 -57.15887917 27.99000725 -56.30076599 27.97981262 C-50.44430293 27.91324465 -44.58794805 27.86811062 -38.73120117 27.83520508 C-36.5478885 27.82015445 -34.36460589 27.79970926 -32.18139648 27.77368164 C-29.03621994 27.73713482 -25.89144451 27.72023602 -22.74609375 27.70703125 C-21.7760289 27.69154739 -20.80596405 27.67606354 -19.8065033 27.66011047 C-13.31392687 27.65851211 -8.58880764 28.3879056 -3.21484375 32.29931641 C-2.58255859 32.94392822 -2.58255859 32.94392822 -1.9375 33.6015625 C-1.21203979 34.33052734 -1.21203979 34.33052734 -0.47192383 35.07421875 C0.01381104 35.58597656 0.4995459 36.09773438 1 36.625 C1.51473877 37.15480469 2.02947754 37.68460937 2.55981445 38.23046875 C15.41544085 51.64573816 15.41544085 51.64573816 15.20703125 61.93359375 C14.32755463 70.71176608 7.32118739 79.40716843 0.75 84.8125 C-11.34275186 93.60156192 -23.46118587 95.27928069 -38 94 C-51.59057104 91.54296534 -63.77339779 82.85998419 -74 74 C-74.52754883 73.5447998 -75.05509766 73.08959961 -75.59863281 72.62060547 C-77.2855762 71.15537186 -78.95763393 69.6749557 -80.625 68.1875 C-81.15867188 67.71924805 -81.69234375 67.25099609 -82.2421875 66.76855469 C-83.55432112 65.57468574 -84.78482572 64.29242763 -86 63 C-86 62.01 -86 61.02 -86 60 C-81.76779262 58.76028646 -79.72387326 59.212167 -75.83203125 61.203125 C-74.85556641 61.68910156 -73.87910156 62.17507813 -72.87304688 62.67578125 C-71.86306641 63.19527344 -70.85308594 63.71476562 -69.8125 64.25 C-59.21247642 69.64311544 -50.03150311 73.58573447 -38 73.4375 C-37.12569336 73.42920166 -36.25138672 73.42090332 -35.35058594 73.41235352 C-25.289062 73.1485155 -18.89941945 70.40831812 -11.49609375 63.5859375 C-9.90677372 62.05392273 -9.90677372 62.05392273 -9 60 C-8.34 60 -7.68 60 -7 60 C-6.01 55.38 -5.02 50.76 -4 46 C-5.95679688 46.28875 -7.91359375 46.5775 -9.9296875 46.875 C-34.47181138 50.39533528 -34.47181138 50.39533528 -44.5 50.5 C-45.19077637 50.51804687 -45.88155273 50.53609375 -46.59326172 50.5546875 C-55.19159859 50.45070157 -60.39727771 43.94167057 -66.0625 38.25 C-66.75666016 37.57195312 -67.45082031 36.89390625 -68.16601562 36.1953125 C-73.03888333 31.3270724 -78.08526383 26.19454679 -79.59375 19.27734375 C-79.1582549 8.40811184 -74.85084193 2.37647082 -67 -5 C-42.55552056 -23.96430116 -23.99006037 -13.56235101 0 0 Z " fill="#7A049F" transform="translate(213,279)"/>
<path d="M0 0 C11 3 11 3 22 6 C22.33 21.84 22.66 37.68 23 54 C23.66 54 24.32 54 25 54 C25.16737671 53.11622681 25.16737671 53.11622681 25.33813477 52.21459961 C26.06525761 49.78164819 26.96533909 48.5012312 28.58984375 46.56640625 C29.1216626 45.92437256 29.65348145 45.28233887 30.20141602 44.62084961 C30.77432373 43.94159424 31.34723145 43.26233887 31.9375 42.5625 C33.13418643 41.11832487 34.32948459 39.67299834 35.5234375 38.2265625 C36.11608398 37.51016602 36.70873047 36.79376953 37.31933594 36.05566406 C39.63077905 33.22847769 41.84947669 30.34254362 44.0625 27.4375 C47.75518808 22.59838915 51.50869211 17.81477773 55.3125 13.0625 C55.80435791 12.44753662 56.29621582 11.83257324 56.80297852 11.19897461 C59.828157 7.42869348 62.90391985 3.71529618 66 0 C75.9 1.98 75.9 1.98 86 4 C84.50784452 6.98431096 83.3992191 8.9220327 81.34765625 11.3984375 C80.82373291 12.03587891 80.29980957 12.67332031 79.76000977 13.33007812 C79.19983154 14.00490234 78.63965332 14.67972656 78.0625 15.375 C76.88451438 16.80915519 75.70744752 18.24406547 74.53125 19.6796875 C73.93957031 20.40124023 73.34789062 21.12279297 72.73828125 21.86621094 C69.22904269 26.17389985 65.80133395 30.54468416 62.39453125 34.93359375 C60.93745957 36.7995012 59.46055145 38.65042082 57.94921875 40.47265625 C57.38847656 41.16230469 56.82773438 41.85195312 56.25 42.5625 C55.78078125 43.12066406 55.3115625 43.67882812 54.828125 44.25390625 C53.56587322 46.91535223 54.05770769 48.22083407 55 51 C56.45725968 53.46001342 57.93830506 55.7818991 59.5625 58.125 C59.96791016 58.72570312 60.37332031 59.32640625 60.79101562 59.9453125 C63.35107951 63.70895925 66.01522559 67.38623797 68.71484375 71.05078125 C73.25496855 77.27165886 77.5060196 83.66686972 81.72119141 90.11010742 C83.02100239 92.09456493 84.3286878 94.07368792 85.63671875 96.05273438 C86.46662202 97.31739597 87.29606713 98.58235838 88.125 99.84765625 C88.51550537 100.43716568 88.90601074 101.02667511 89.30834961 101.63404846 C92 105.77087078 92 105.77087078 92 108 C89.64553972 107.7324477 87.33690063 107.3863263 85 107 C84.0839801 106.87380783 83.16796021 106.74761566 82.22418213 106.61759949 C76.43306835 105.55458058 72.67902833 104.44168353 68.97558594 99.7121582 C67.77639646 97.93173828 66.61387019 96.12621026 65.484375 94.30078125 C64.5443161 92.87550362 64.5443161 92.87550362 63.58526611 91.4214325 C61.6067015 88.4054152 59.67843404 85.3607554 57.75 82.3125 C56.41076052 80.25246791 55.06834198 78.19449884 53.72265625 76.13867188 C50.44461377 71.1157307 47.20719554 66.06843387 44 61 C39.67773155 62.91373745 37.41647856 65.92629091 34.625 69.625 C34.16867188 70.21667969 33.71234375 70.80835938 33.2421875 71.41796875 C32.30328119 72.63907443 31.37558658 73.8688714 30.45849609 75.10644531 C29 77 29 77 27.34228516 78.82324219 C22.36979554 84.54967795 22.1064538 89.5907929 22.125 97 C22.104375 98.06089844 22.08375 99.12179688 22.0625 100.21484375 C22.015728 102.81068965 21.99552824 105.4038221 22 108 C14.29856235 107.34733579 7.72587082 105.78289327 0 104 C0 69.68 0 35.36 0 0 Z " fill="#7B06A0" transform="translate(126,113)"/>
<path d="M0 0 C10 1 10 1 19 3 C19 17.19 19 31.38 19 46 C22.96 43.03 26.92 40.06 31 37 C35.87890688 34.31660121 40.4596306 32.7229645 46 34 C57.29774371 38.76277431 69.44334899 50.7466451 76 61 C76.36076355 63.49310303 76.36076355 63.49310303 76.34057617 66.31933594 C76.34034958 67.38013367 76.34012299 68.4409314 76.33988953 69.53387451 C76.32440567 70.67253967 76.30892181 71.81120483 76.29296875 72.984375 C76.28872391 74.15510559 76.28447906 75.32583618 76.28010559 76.53204346 C76.26331175 80.27159616 76.22565704 84.01061015 76.1875 87.75 C76.17245413 90.28514847 76.15876556 92.82030538 76.14648438 95.35546875 C76.11340585 101.57049633 76.06319883 107.78520968 76 114 C69.13963599 113.34034961 62.65556077 111.7637236 56 110 C55.99191315 109.29034088 55.98382629 108.58068176 55.97549438 107.84951782 C55.89762497 101.16885663 55.81035789 94.4883925 55.71247292 87.80799294 C55.66247962 84.37333864 55.61615022 80.93871555 55.578125 77.50390625 C55.5342726 73.55711312 55.47460852 69.61063634 55.4140625 65.6640625 C55.40251129 64.42757965 55.39096008 63.1910968 55.37905884 61.91714478 C55.35918915 60.77611298 55.33931946 59.63508118 55.31884766 58.45947266 C55.30552399 57.451315 55.29220032 56.44315735 55.2784729 55.40444946 C55.23102768 52.81698676 55.23102768 52.81698676 53 51 C43.7588121 50.04401504 38.46450792 53.69077924 31.375 59.3125 C29.53376183 60.81626783 27.74384654 62.38430357 26 64 C25.48884644 64.46919861 24.97769287 64.93839722 24.4510498 65.42181396 C19.61124693 70.36753339 19.12740906 74.33645986 19.1953125 81.08984375 C19.18160614 82.03436905 19.16789978 82.97889435 19.15377808 83.95204163 C19.11660056 86.94768437 19.1201847 89.94166006 19.125 92.9375 C19.10686467 94.97723931 19.08605935 97.01695675 19.0625 99.05664062 C19.01076361 104.03803825 18.99556144 109.01834853 19 114 C12.21471947 113.3598792 6.79892483 111.85425223 0 110 C0 73.7 0 37.4 0 0 Z " fill="#7B07A0" transform="translate(157,563)"/>
<path d="M0 0 C1.33765116 0.65218409 2.67554077 1.30387934 4.01367188 1.95507812 C7.24103704 3.52695242 10.46516931 5.1053257 13.6875 6.6875 C12.89757484 10.93675258 10.84096563 12.77660865 7.6875 15.6875 C4.04235707 14.62091477 0.73115968 13.26048642 -2.6328125 11.5234375 C-15.29455417 4.69330694 -15.29455417 4.69330694 -29.3125 4.6875 C-42.57112218 9.28586608 -49.17750774 18.78117421 -55.5625 30.75 C-61.3621257 43.12420139 -61.71834118 55.48986541 -58.3125 68.6875 C-57.6525 68.6875 -56.9925 68.6875 -56.3125 68.6875 C-55.05078125 70.48046875 -55.05078125 70.48046875 -53.625 72.875 C-49.7069914 78.95269138 -45.16103348 82.37787727 -38.3125 84.6875 C-25.0694341 86.3762131 -15.30203174 81.52761489 -4.78515625 73.9453125 C-2.3125 72.6875 -2.3125 72.6875 0.0859375 72.6796875 C3.66753895 74.06715473 6.42924376 76.28552435 9.375 78.6875 C13.33100475 81.98924829 13.33100475 81.98924829 17.6875 84.6875 C15.70514737 90.63455788 8.12989471 93.42510166 2.79296875 96.18359375 C-8.70680354 101.60376614 -22.99563893 104.73812843 -35.4375 100.3125 C-50.75412672 92.92816378 -70.28306271 79.84306288 -78.3125 64.6875 C-78.3125 64.0275 -78.3125 63.3675 -78.3125 62.6875 C-78.9725 62.6875 -79.6325 62.6875 -80.3125 62.6875 C-85.21601553 48.721237 -85.88162166 36.81625176 -80.12890625 22.8046875 C-71.85275597 6.72129063 -60.42268547 -5.03699379 -43.2734375 -11.49609375 C-27.812032 -15.75919896 -13.50683325 -6.63538256 0 0 Z " fill="#7A059F" transform="translate(128.3125,574.3125)"/>
<path d="M0 0 C7.90970368 5.08893028 15.28009846 10.68732909 22.41015625 16.82421875 C13.08859863 26.46838037 1.55273465 33.95802071 -9.31640625 41.75 C-11.93001142 43.6242224 -14.5315672 45.51177848 -17.11328125 47.4296875 C-18.09554688 48.15800781 -19.0778125 48.88632813 -20.08984375 49.63671875 C-20.92515625 50.26191406 -21.76046875 50.88710937 -22.62109375 51.53125 C-24.58984375 52.82421875 -24.58984375 52.82421875 -26.58984375 52.82421875 C-22.374848 57.27338094 -20.10039499 59.56450655 -13.96484375 60.19921875 C-4.87634238 59.89682869 2.036015 54.97532973 8.96484375 49.53125 C12.84265053 46.82421875 12.84265053 46.82421875 15.41015625 46.82421875 C17.734375 48.5546875 17.734375 48.5546875 20.09765625 51.01171875 C20.88527344 51.80964844 21.67289062 52.60757813 22.484375 53.4296875 C24.31144776 55.70148386 25.02480732 56.9830868 25.41015625 59.82421875 C14.05367225 68.31645679 2.97264127 75.31123307 -11.58984375 73.82421875 C-19.82046237 71.54134816 -26.18971099 67.3464009 -32.58984375 61.82421875 C-33.16605469 61.36789063 -33.74226562 60.9115625 -34.3359375 60.44140625 C-37.56697199 57.8791395 -40.21703732 55.20090482 -42.58984375 51.82421875 C-42.58984375 51.16421875 -42.58984375 50.50421875 -42.58984375 49.82421875 C-43.24984375 49.82421875 -43.90984375 49.82421875 -44.58984375 49.82421875 C-49.5316344 39.41115988 -50.60631826 27.93351021 -47.02734375 16.88671875 C-43.10515951 7.72119347 -36.48464965 -0.03203556 -27.328125 -4.20703125 C-16.96302156 -8.00815577 -9.1142427 -5.6588562 0 0 Z " fill="#7A06A0" transform="translate(276.58984375,148.17578125)"/>
<path d="M0 0 C5.36355849 3.29765296 10.42804061 6.97140611 15.4375 10.77734375 C16.27825073 11.41373779 16.27825073 11.41373779 17.13598633 12.06298828 C19.74954448 14.08900859 21.52109008 15.74647887 23.375 18.52734375 C14.86492992 25.78152243 5.90411259 32.29109251 -3.19189453 38.78076172 C-5.71074797 40.58889713 -8.21432526 42.41660549 -10.71484375 44.25 C-11.53718506 44.85102539 -12.35952637 45.45205078 -13.20678711 46.07128906 C-14.79471708 47.23261816 -16.38025066 48.39723246 -17.96313477 49.56542969 C-18.67655029 50.08524414 -19.38996582 50.60505859 -20.125 51.140625 C-20.7540625 51.60251221 -21.383125 52.06439941 -22.03125 52.5402832 C-23.625 53.52734375 -23.625 53.52734375 -25.625 53.52734375 C-21.4660165 57.91738189 -19.15240254 60.21141843 -13.125 60.96484375 C-2.54817262 60.63125179 6.4174761 53.84010385 14.375 47.52734375 C18.00561667 49.0595306 20.3613773 51.24565815 23.125 54.02734375 C23.92421875 54.82140625 24.7234375 55.61546875 25.546875 56.43359375 C27.375 58.52734375 27.375 58.52734375 27.375 60.52734375 C16.08531286 68.65818493 3.83327057 76.54771344 -10.625 74.52734375 C-23.03076991 71.45945629 -35.20847924 61.53161682 -42.29296875 51.0625 C-45.625 45.30377932 -45.625 45.30377932 -45.625 41.52734375 C-46.285 41.52734375 -46.945 41.52734375 -47.625 41.52734375 C-48.39852518 21.80245166 -48.39852518 21.80245166 -43.625 13.52734375 C-43.22410156 12.76292969 -42.82320313 11.99851562 -42.41015625 11.2109375 C-32.60827021 -5.58011945 -16.16622254 -9.0694433 0 0 Z " fill="#7A06A0" transform="translate(430.625,602.47265625)"/>
<path d="M0 0 C0.76957031 0.4125 1.53914062 0.825 2.33203125 1.25 C11.18724535 6.28559832 19.95815355 12.61796773 27 20 C19.09506189 26.18708054 11.06411187 32.16629593 2.90283203 38.01123047 C-3.16366057 42.3654378 -9.1375859 46.83277885 -15.05004883 51.39404297 C-19.78309701 55 -19.78309701 55 -22 55 C-19.33786406 58.74670984 -17.51876687 60.89541254 -13 62 C-3.8871854 63.46980881 3.58627386 58.96813233 11 54 C12.0810833 53.06983989 13.1507224 52.12617047 14.20703125 51.16796875 C17 49 17 49 19.078125 48.87109375 C21.85824846 50.50413375 23.65188473 52.62498373 25.75 55.0625 C26.54921875 55.98160156 27.3484375 56.90070312 28.171875 57.84765625 C28.77515625 58.55792969 29.3784375 59.26820313 30 60 C28.11612697 65.6516191 21.0393134 68.15343033 16 71 C15.05898438 71.53882813 14.11796875 72.07765625 13.1484375 72.6328125 C5.69095873 76.48254343 -1.74656888 77.99051986 -9.92822266 75.38623047 C-23.63790378 70.13492997 -35.4992964 60.62793017 -42.046875 47.375 C-45.80323384 38.01489274 -44.51358017 26.55646179 -42 17 C-37.8839385 7.91675919 -29.51848471 0.22941072 -20.25 -3.375 C-12.59884564 -5.50032065 -6.80317576 -3.69612265 0 0 Z " fill="#7A05A0" transform="translate(595,601)"/>
<path d="M0 0 C6.04084334 3.53194469 11.07522662 8.40203555 16.125 13.1953125 C16.87523437 13.90429688 17.62546875 14.61328125 18.3984375 15.34375 C28.3050977 24.95578834 28.3050977 24.95578834 28.57910156 32.64990234 C28.57847187 34.81878802 28.5560863 36.98774168 28.515625 39.15625 C28.50996521 40.30195465 28.50430542 41.4476593 28.49847412 42.62808228 C28.47614072 46.27592305 28.42594736 49.92277018 28.375 53.5703125 C28.35493119 56.04816287 28.33668109 58.52602868 28.3203125 61.00390625 C28.27628576 67.06804553 28.20940286 73.13160801 28.125 79.1953125 C21.62649789 78.67977371 15.46273468 77.72863541 9.125 76.1953125 C9.11953156 75.13415474 9.11953156 75.13415474 9.11395264 74.05155945 C9.07609179 67.38580961 9.01926174 60.72052339 8.94109726 54.05511761 C8.90158092 50.62827827 8.86941344 47.20169746 8.85400391 43.7746582 C8.83596851 39.83511317 8.78603569 35.89628481 8.734375 31.95703125 C8.73314636 30.72570969 8.73191772 29.49438812 8.73065186 28.22575378 C8.71093323 27.08479752 8.6912146 25.94384125 8.67089844 24.76831055 C8.66201599 23.7623735 8.65313354 22.75643646 8.64398193 21.72001648 C8.34664087 19.06055607 8.34664087 19.06055607 6.21417236 17.36701965 C3.11574288 15.62927314 1.11193433 15.90542593 -2.32421875 16.4453125 C-7.5526349 17.98261097 -11.54715915 20.97828414 -15.875 24.1953125 C-16.83656006 24.85909912 -17.79812012 25.52288574 -18.78881836 26.20678711 C-23.83282723 30.30813527 -26.93990569 33.59612878 -27.85449219 40.21191406 C-28.3116903 46.10461798 -28.19678766 51.97933865 -28.0625 57.8828125 C-28.05553148 59.95246315 -28.05353475 62.02213683 -28.05664062 64.09179688 C-28.05347365 69.12839536 -27.98284009 74.15991207 -27.875 79.1953125 C-29.48116367 79.0403554 -31.08717308 78.88379877 -32.69311523 78.7265625 C-33.58747787 78.63955078 -34.48184052 78.55253906 -35.40330505 78.46289062 C-37.96011944 78.18609773 -40.43243254 77.77725195 -42.9375 77.1953125 C-43.67097656 77.0303125 -44.40445312 76.8653125 -45.16015625 76.6953125 C-46.875 76.1953125 -46.875 76.1953125 -47.875 75.1953125 C-47.96943335 72.89477415 -47.99242128 70.59129077 -47.98852539 68.28881836 C-47.98867142 67.56690811 -47.98881744 66.84499786 -47.9889679 66.10121155 C-47.98826869 63.70416303 -47.98047595 61.30719127 -47.97265625 58.91015625 C-47.9707921 57.25248761 -47.96936818 55.59481843 -47.96836853 53.93714905 C-47.96454312 49.56577036 -47.95471265 45.19442469 -47.94366455 40.82305908 C-47.93345092 36.36576789 -47.92887101 31.90847139 -47.92382812 27.45117188 C-47.9130904 18.69920357 -47.89601371 9.94726214 -47.875 1.1953125 C-45.97362292 1.50314371 -44.0726612 1.81354105 -42.171875 2.125 C-41.11323242 2.29757324 -40.05458984 2.47014648 -38.96386719 2.64794922 C-35.20332527 3.31433674 -31.56145225 4.20280613 -27.875 5.1953125 C-27.875 6.8453125 -27.875 8.4953125 -27.875 10.1953125 C-26.92238281 9.56882813 -25.96976562 8.94234375 -24.98828125 8.296875 C-23.72150416 7.47112401 -22.45456868 6.64561598 -21.1875 5.8203125 C-20.56166016 5.4078125 -19.93582031 4.9953125 -19.29101562 4.5703125 C-13.37006638 0.72634545 -7.18799411 -3.08484747 0 0 Z " fill="#7A06A0" transform="translate(488.875,142.8046875)"/>
<path d="M0 0 C9.76444692 5.70431607 20.70262572 16.55393858 27 26 C27.24050903 28.37284851 27.24050903 28.37284851 27.22705078 31.20581055 C27.22689972 32.26668381 27.22674866 33.32755707 27.22659302 34.420578 C27.21627045 35.56440445 27.20594788 36.7082309 27.1953125 37.88671875 C27.1924826 39.05886429 27.18965271 40.23100983 27.18673706 41.43867493 C27.17552753 45.18838643 27.15042128 48.93786049 27.125 52.6875 C27.11497121 55.2272101 27.10584519 57.76692393 27.09765625 60.30664062 C27.07558567 66.53784165 27.04210039 72.76890386 27 79 C20.60794144 78.27637073 14.31972924 77.19656638 8 76 C7.99413376 75.27781281 7.98826752 74.55562561 7.98222351 73.81155396 C7.92437396 67.01311259 7.85234227 60.21495436 7.76428509 53.41684151 C7.7195139 49.92163513 7.68027331 46.42654712 7.65356445 42.93115234 C7.6226341 38.914736 7.56784357 34.89895633 7.51171875 30.8828125 C7.50532883 29.62445587 7.4989389 28.36609924 7.49235535 27.0696106 C7.47256119 25.90855804 7.45276703 24.74750549 7.43237305 23.55126953 C7.41571846 22.01238571 7.41571846 22.01238571 7.39872742 20.44241333 C7.26714737 19.63641693 7.13556732 18.83042053 7 18 C3.15434323 15.43622882 1.58969584 15.4900338 -3 16 C-12.02821096 18.93651152 -18.39453871 25.50513243 -25 32 C-25.53901443 32.45671585 -26.07802887 32.9134317 -26.63337708 33.38398743 C-28.40270136 35.47618874 -28.39344676 36.66258414 -28.43237305 39.37963867 C-28.45216721 40.26032516 -28.47196136 41.14101166 -28.49235535 42.04838562 C-28.50194023 43.46882927 -28.50194023 43.46882927 -28.51171875 44.91796875 C-28.52966995 45.89034988 -28.54762115 46.86273102 -28.56611633 47.86457825 C-28.62032467 50.97217464 -28.65414898 54.07961652 -28.6875 57.1875 C-28.72066376 59.29364134 -28.75515253 61.39976227 -28.79101562 63.50585938 C-28.87605731 68.67046161 -28.94281841 73.83501719 -29 79 C-30.60616367 78.8450429 -32.21217308 78.68848627 -33.81811523 78.53125 C-34.71247787 78.44423828 -35.60684052 78.35722656 -36.52830505 78.26757812 C-39.08511944 77.99078523 -41.55743254 77.58193945 -44.0625 77 C-44.79597656 76.835 -45.52945312 76.67 -46.28515625 76.5 C-48 76 -48 76 -49 75 C-49.09443335 72.69946165 -49.11742128 70.39597827 -49.11352539 68.09350586 C-49.11367142 67.37159561 -49.11381744 66.64968536 -49.1139679 65.90589905 C-49.11326869 63.50885053 -49.10547595 61.11187877 -49.09765625 58.71484375 C-49.0957921 57.05717511 -49.09436818 55.39950593 -49.09336853 53.74183655 C-49.08954312 49.37045786 -49.07971265 44.99911219 -49.06866455 40.62774658 C-49.05845092 36.17045539 -49.05387101 31.71315889 -49.04882812 27.25585938 C-49.0380904 18.50389107 -49.02101371 9.75194964 -49 1 C-47.09862292 1.30783121 -45.1976612 1.61822855 -43.296875 1.9296875 C-42.23823242 2.10226074 -41.17958984 2.27483398 -40.08886719 2.45263672 C-36.32832527 3.11902424 -32.68645225 4.00749363 -29 5 C-29 6.98 -29 8.96 -29 11 C-28.34 11 -27.68 11 -27 11 C-26.67 10.01 -26.34 9.02 -26 8 C-23.70703125 6.24609375 -23.70703125 6.24609375 -20.8125 4.4375 C-19.87019531 3.83808594 -18.92789062 3.23867188 -17.95703125 2.62109375 C-11.88178471 -0.70945753 -6.6754244 -2.13091724 0 0 Z " fill="#7A05A0" transform="translate(503,295)"/>
<path d="M0 0 C9.05312738 5.23845649 16.88146063 13.02548707 23.6328125 20.9609375 C24.71236206 22.18792358 24.71236206 22.18792358 25.8137207 23.43969727 C28.47193693 28.58524184 28.12991319 33.21534928 28.0234375 38.921875 C28.01777771 40.06757965 28.01211792 41.2132843 28.00628662 42.39370728 C27.98395322 46.04154805 27.93375986 49.68839518 27.8828125 53.3359375 C27.86274369 55.81378787 27.84449359 58.29165368 27.828125 60.76953125 C27.78409826 66.83367053 27.71721536 72.89723301 27.6328125 78.9609375 C21.13431039 78.44539871 14.97054718 77.49426041 8.6328125 75.9609375 C8.62734406 74.89977974 8.62734406 74.89977974 8.62176514 73.81718445 C8.58390429 67.15143461 8.52707424 60.48614839 8.44890976 53.82074261 C8.40939342 50.39390327 8.37722594 46.96732246 8.36181641 43.5402832 C8.34378101 39.60073817 8.29384819 35.66190981 8.2421875 31.72265625 C8.24095886 30.49133469 8.23973022 29.26001312 8.23846436 27.99137878 C8.21874573 26.85042252 8.1990271 25.70946625 8.17871094 24.53393555 C8.16982849 23.5279985 8.16094604 22.52206146 8.15179443 21.48564148 C7.85445337 18.82618107 7.85445337 18.82618107 5.72198486 17.13264465 C2.62970675 15.39834812 0.6262963 15.67615048 -2.8046875 16.1953125 C-12.00806582 18.94510237 -22.0932555 26.89878799 -27.3671875 34.9609375 C-27.83180496 37.13151992 -27.83180496 37.13151992 -27.79956055 39.45410156 C-27.81935471 40.33471252 -27.83914886 41.21532349 -27.85954285 42.12261963 C-27.86912773 43.53532135 -27.86912773 43.53532135 -27.87890625 44.9765625 C-27.89685745 45.94752869 -27.91480865 46.91849487 -27.93330383 47.91888428 C-27.98743023 51.01619135 -28.02131033 54.1133441 -28.0546875 57.2109375 C-28.08785848 59.31252148 -28.12234793 61.4140851 -28.15820312 63.515625 C-28.24315823 68.66395121 -28.30995858 73.81223145 -28.3671875 78.9609375 C-29.82646114 78.87089721 -31.28461833 78.76280062 -32.7421875 78.6484375 C-33.55429687 78.59042969 -34.36640625 78.53242187 -35.203125 78.47265625 C-39.68634374 77.74759248 -44.01724626 76.26591987 -48.3671875 74.9609375 C-48.3671875 50.5409375 -48.3671875 26.1209375 -48.3671875 0.9609375 C-34.8671875 3.2109375 -34.8671875 3.2109375 -28.3671875 4.9609375 C-28.3671875 6.6109375 -28.3671875 8.2609375 -28.3671875 9.9609375 C-27.41457031 9.33445312 -26.46195312 8.70796875 -25.48046875 8.0625 C-24.21369166 7.23674901 -22.94675618 6.41124098 -21.6796875 5.5859375 C-21.05384766 5.1734375 -20.42800781 4.7609375 -19.78320312 4.3359375 C-13.50196594 0.25806624 -7.52087896 -3.3012439 0 0 Z " fill="#7A06A0" transform="translate(341.3671875,598.0390625)"/>
<path d="M0 0 C1.14726563 0.33386719 2.29453125 0.66773438 3.4765625 1.01171875 C6.27975927 1.82931781 9.07878365 2.65889812 11.875 3.5 C11.545 6.14 11.215 8.78 10.875 11.5 C4.35057097 11.62546979 4.35057097 11.62546979 2.0390625 11.015625 C-4.11424221 9.54949464 -10.97564304 9.48188355 -16.6875 12.1875 C-17.491875 12.950625 -18.29625 13.71375 -19.125 14.5 C-19.8675 15.20125 -20.61 15.9025 -21.375 16.625 C-23.13083566 19.50958716 -23.62929902 21.40484648 -24.234375 24.6796875 C-24.40420898 25.58187012 -24.57404297 26.48405273 -24.74902344 27.41357422 C-24.8730957 28.10209473 -24.99716797 28.79061523 -25.125 29.5 C-21.85353891 28.85731979 -18.58294819 28.21031325 -15.3125 27.5625 C-14.38373047 27.38009766 -13.45496094 27.19769531 -12.49804688 27.00976562 C-11.60537109 26.83251953 -10.71269531 26.65527344 -9.79296875 26.47265625 C-8.55969849 26.22914429 -8.55969849 26.22914429 -7.30151367 25.98071289 C-4.96278735 25.50381086 -4.96278735 25.50381086 -2.125 24.5 C2.69376826 23.80483343 7.03461279 23.5233528 11.421875 25.8515625 C17.27864134 30.31292478 22.58685966 35.35083263 24.875 42.5 C25.0703125 45.83203125 25.0703125 45.83203125 25 49.3125 C24.98195313 50.47394531 24.96390625 51.63539063 24.9453125 52.83203125 C24.92210937 53.71246094 24.89890625 54.59289062 24.875 55.5 C24.215 55.5 23.555 55.5 22.875 55.5 C22.5965625 56.7375 22.5965625 56.7375 22.3125 58 C19.34543521 65.22415775 14.10869777 70.06286615 7.1875 73.53515625 C-2.27040198 77.48127414 -12.89699399 77.91892568 -22.60546875 74.5859375 C-30.53009199 71.17036345 -36.97086879 65.9970762 -43.3125 60.25 C-43.8897583 59.73058838 -44.4670166 59.21117676 -45.06176758 58.67602539 C-46.47940234 57.34846075 -47.81034209 55.9296121 -49.125 54.5 C-49.125 53.51 -49.125 52.52 -49.125 51.5 C-48.465 51.5 -47.805 51.5 -47.125 51.5 C-47.125 50.84 -47.125 50.18 -47.125 49.5 C-43.3705906 50.92763648 -39.8683366 52.63586548 -36.3125 54.5 C-25.95241414 59.6737335 -15.75210705 61.51823709 -4.375 58.0625 C1.46892104 55.6775713 5.55695338 51.84712776 8.875 46.5 C9.61520476 44.18894271 10.297929 41.85709099 10.875 39.5 C10.33609131 39.64622803 9.79718262 39.79245605 9.24194336 39.94311523 C6.76659364 40.61217888 4.28958103 41.27487626 1.8125 41.9375 C0.96494141 42.16759766 0.11738281 42.39769531 -0.75585938 42.63476562 C-5.53500976 43.90797557 -10.20002802 44.93219376 -15.125 45.5 C-16.05183594 45.6134375 -16.97867188 45.726875 -17.93359375 45.84375 C-23.10269625 46.15097749 -26.35292601 45.93633506 -30.375 42.5 C-31.65678936 41.1971977 -32.90694084 39.86257465 -34.125 38.5 C-34.7540625 37.84 -35.383125 37.18 -36.03125 36.5 C-40.54837231 31.60007071 -44.69672164 26.86504423 -45.5625 20.0625 C-44.56097227 11.90720277 -41.64835788 6.59960913 -35.125 1.5 C-23.36727293 -5.73889913 -12.7501239 -3.8398629 0 0 Z " fill="#7A06A0" transform="translate(601.125,448.5)"/>
<path d="M0 0 C1.14726563 0.33386719 2.29453125 0.66773438 3.4765625 1.01171875 C6.27975927 1.82931781 9.07878365 2.65889812 11.875 3.5 C11.545 6.14 11.215 8.78 10.875 11.5 C4.35057097 11.62546979 4.35057097 11.62546979 2.0390625 11.015625 C-4.11424221 9.54949464 -10.97564304 9.48188355 -16.6875 12.1875 C-17.491875 12.950625 -18.29625 13.71375 -19.125 14.5 C-19.8675 15.20125 -20.61 15.9025 -21.375 16.625 C-23.13083566 19.50958716 -23.62929902 21.40484648 -24.234375 24.6796875 C-24.40420898 25.58187012 -24.57404297 26.48405273 -24.74902344 27.41357422 C-24.8730957 28.10209473 -24.99716797 28.79061523 -25.125 29.5 C-21.85353891 28.85731979 -18.58294819 28.21031325 -15.3125 27.5625 C-14.38373047 27.38009766 -13.45496094 27.19769531 -12.49804688 27.00976562 C-11.60537109 26.83251953 -10.71269531 26.65527344 -9.79296875 26.47265625 C-8.55969849 26.22914429 -8.55969849 26.22914429 -7.30151367 25.98071289 C-4.96278735 25.50381086 -4.96278735 25.50381086 -2.125 24.5 C2.69376826 23.80483343 7.03461279 23.5233528 11.421875 25.8515625 C17.27864134 30.31292478 22.58685966 35.35083263 24.875 42.5 C25.0703125 45.83203125 25.0703125 45.83203125 25 49.3125 C24.98195313 50.47394531 24.96390625 51.63539063 24.9453125 52.83203125 C24.92210937 53.71246094 24.89890625 54.59289062 24.875 55.5 C24.215 55.5 23.555 55.5 22.875 55.5 C22.5965625 56.7375 22.5965625 56.7375 22.3125 58 C19.34543521 65.22415775 14.10869777 70.06286615 7.1875 73.53515625 C-2.27040198 77.48127414 -12.89699399 77.91892568 -22.60546875 74.5859375 C-30.53009199 71.17036345 -36.97086879 65.9970762 -43.3125 60.25 C-43.8897583 59.73058838 -44.4670166 59.21117676 -45.06176758 58.67602539 C-46.47940234 57.34846075 -47.81034209 55.9296121 -49.125 54.5 C-49.125 53.51 -49.125 52.52 -49.125 51.5 C-48.465 51.5 -47.805 51.5 -47.125 51.5 C-47.125 50.84 -47.125 50.18 -47.125 49.5 C-43.3705906 50.92763648 -39.8683366 52.63586548 -36.3125 54.5 C-25.95241414 59.6737335 -15.75210705 61.51823709 -4.375 58.0625 C1.46892104 55.6775713 5.55695338 51.84712776 8.875 46.5 C9.61520476 44.18894271 10.297929 41.85709099 10.875 39.5 C10.33609131 39.64622803 9.79718262 39.79245605 9.24194336 39.94311523 C6.76659364 40.61217888 4.28958103 41.27487626 1.8125 41.9375 C0.96494141 42.16759766 0.11738281 42.39769531 -0.75585938 42.63476562 C-5.53500976 43.90797557 -10.20002802 44.93219376 -15.125 45.5 C-16.05183594 45.6134375 -16.97867188 45.726875 -17.93359375 45.84375 C-23.10269625 46.15097749 -26.35292601 45.93633506 -30.375 42.5 C-31.65678936 41.1971977 -32.90694084 39.86257465 -34.125 38.5 C-34.7540625 37.84 -35.383125 37.18 -36.03125 36.5 C-40.54837231 31.60007071 -44.69672164 26.86504423 -45.5625 20.0625 C-44.56097227 11.90720277 -41.64835788 6.59960913 -35.125 1.5 C-23.36727293 -5.73889913 -12.7501239 -3.8398629 0 0 Z " fill="#7A06A0" transform="translate(601.125,145.5)"/>
<path d="M0 0 C1.57104492 0.50080078 1.57104492 0.50080078 3.17382812 1.01171875 C5.72495128 1.82714624 8.2705095 2.65662183 10.8125 3.5 C10.9375 9.25 10.9375 9.25 9.8125 11.5 C8.83023438 11.39171875 8.83023438 11.39171875 7.828125 11.28125 C-4.7156496 9.53282133 -4.7156496 9.53282133 -16.6875 12.1875 C-21.02714653 16.20167304 -23.21270351 18.81184708 -24.296875 24.6796875 C-24.46670898 25.58187012 -24.63654297 26.48405273 -24.81152344 27.41357422 C-24.9355957 28.10209473 -25.05966797 28.79061523 -25.1875 29.5 C-24.22094482 29.27280273 -24.22094482 29.27280273 -23.23486328 29.04101562 C-20.26325603 28.34932549 -17.2880316 27.67459969 -14.3125 27 C-13.29929687 26.76152344 -12.28609375 26.52304687 -11.2421875 26.27734375 C3.79749074 22.90305697 3.79749074 22.90305697 10.58203125 25.6015625 C16.11436964 29.7270156 21.18806135 33.91050036 23.8125 40.5 C24.85223365 48.99782314 24.66876465 56.25710353 19.57421875 63.41796875 C13.23040666 70.91520122 4.62011138 75.90950087 -5.33984375 76.7734375 C-21.00966087 77.19388667 -30.50025618 71.21407279 -42.1875 61.5 C-43.02051636 60.84100708 -43.02051636 60.84100708 -43.87036133 60.16870117 C-48.08365441 56.79769069 -48.08365441 56.79769069 -49.125 53.8125 C-49.1875 51.5 -49.1875 51.5 -48.1875 49.5 C-43.57313824 50.33793136 -39.60735074 52.740723 -35.49609375 54.88476562 C-26.23359986 59.63656564 -16.72279638 61.46896869 -6.421875 58.77734375 C-4.19360001 57.84131667 -2.2252375 56.79557206 -0.1875 55.5 C0.885 54.819375 1.9575 54.13875 3.0625 53.4375 C5.82716863 51.00334799 7.01980867 48.16082702 8.484375 44.81640625 C8.92362305 43.8219751 9.36287109 42.82754395 9.81542969 41.80297852 C10.14446289 41.04299561 10.47349609 40.2830127 10.8125 39.5 C10.08248779 39.68175781 9.35247559 39.86351562 8.6003418 40.05078125 C5.23665086 40.88033747 1.86851007 41.69024447 -1.5 42.5 C-2.64791016 42.78617188 -3.79582031 43.07234375 -4.97851562 43.3671875 C-22.03455375 47.42584813 -22.03455375 47.42584813 -29.203125 44.1015625 C-35.6969261 38.35704614 -43.52667434 31.20575548 -44.42578125 22.08203125 C-44.59758429 15.67106499 -44.21478394 10.67307458 -40.1875 5.5 C-28.61064273 -5.99845869 -14.43716822 -4.79695519 0 0 Z " fill="#7A05A0" transform="translate(515.1875,600.5)"/>
<path d="M0 0 C2.95104268 2.59115943 4.62779756 4.81746342 6.5625 8.25 C7.00980469 9.01054687 7.45710937 9.77109375 7.91796875 10.5546875 C12.01237658 18.28474597 12.86827487 25.60746132 11.5625 34.25 C8.934669 41.51236932 4.17613906 46.43673063 -2.4375 50.25 C-3.14261719 50.6625 -3.84773437 51.075 -4.57421875 51.5 C-12.80803185 55.52604104 -23.46483951 55.97543525 -32.25 53.4375 C-39.35749663 49.88375169 -45.5870037 43.30760251 -48.4375 35.875 C-50.70972845 27.39103015 -50.25454329 18.20538652 -46.4375 10.25 C-36.09137718 -5.3064005 -16.38855216 -8.34326292 0 0 Z " fill="#E5FAFA" transform="translate(967.4375,450.75)"/>
<path d="M0 0 C8.3821525 -0.30769927 13.2773861 1.25237763 19.7734375 6.44921875 C26.62103549 15.05762765 27.50444716 27.94172225 27.26953125 38.58203125 C26.81935053 42.40001962 25.49727565 44.33770905 22.9609375 47.19921875 C22.47496094 47.84503906 21.98898437 48.49085938 21.48828125 49.15625 C16.48969574 55.525606 10.56210254 58.66549707 2.9609375 61.19921875 C-5.27228601 62.03524016 -11.53537288 62.0012476 -18.26953125 56.90234375 C-20.12380214 55.11765918 -21.62661754 53.3506829 -23.0390625 51.19921875 C-23.0390625 50.53921875 -23.0390625 49.87921875 -23.0390625 49.19921875 C-23.6990625 49.19921875 -24.3590625 49.19921875 -25.0390625 49.19921875 C-30.36754538 39.73164648 -30.52504102 28.57338717 -28.4140625 18.09765625 C-26.05910347 11.30612263 -21.23852564 5.71556373 -15.0703125 2.01953125 C-10.34124383 0.10971506 -5.03206295 0.32986531 0 0 Z " fill="#E5F9FA" transform="translate(779.0390625,443.80078125)"/>
<path d="M0 0 C3.0117985 0.28683795 6.00026719 0.61483793 9 1 C9.81210937 1.09925781 10.62421875 1.19851562 11.4609375 1.30078125 C15.6105099 1.98318601 17.4815779 2.42700715 20.375 5.625 C21.80697139 8.59909443 23.06456051 11.56090633 24.15625 14.67578125 C25.15655717 17.43125703 26.29247549 20.11401235 27.4375 22.8125 C29.48941244 27.68656228 31.32178379 32.60575096 33.0859375 37.58984375 C34.03306578 40.21825484 34.03306578 40.21825484 35.75 43.4375 C37 46 37 46 37 50 C40.93978536 47.37347643 41.53741999 44.30638329 42.9375 40 C43.46461641 38.44218999 43.99325481 36.88489411 44.5234375 35.328125 C44.77706055 34.57724609 45.03068359 33.82636719 45.29199219 33.05273438 C46.4116565 29.80648004 47.69899934 26.63754745 49 23.4609375 C52.15268671 15.70237254 55.07646099 7.84739417 58 0 C64.7857936 0.54863863 71.35009036 1.54267938 78 3 C76.27741231 8.95203062 74.42966795 14.86200149 72.5 20.75 C72.0978125 21.98234375 71.695625 23.2146875 71.28125 24.484375 C70.06708212 27.81593322 68.59361529 30.83780003 67 34 C66.17569988 36.19636097 65.38519579 38.40563645 64.625 40.625 C63.04156691 45.14774003 61.37901422 49.59199809 59.5 54 C57.12439714 59.57554741 55.09241169 65.2440991 53.11328125 70.96875 C52.20947878 73.42962971 51.23729695 75.69489883 50 78 C46.65738316 77.73482372 43.3304332 77.38909094 40 77 C39.16597656 76.91234375 38.33195312 76.8246875 37.47265625 76.734375 C36.31056641 76.55648437 36.31056641 76.55648437 35.125 76.375 C34.42632812 76.27960938 33.72765625 76.18421875 33.0078125 76.0859375 C27.85029938 73.29646542 25.932712 65.58656245 24.0625 60.3125 C23.54597524 58.89651252 23.02772979 57.48115159 22.5078125 56.06640625 C22.25418945 55.37562988 22.00056641 54.68485352 21.73925781 53.97314453 C19.97203398 49.25626771 17.96924566 44.63500907 16 40 C15.16518032 38.00061996 14.33186103 36.00061282 13.5 34 C12.2405013 30.97562381 10.97981588 27.95177898 9.71484375 24.9296875 C9.29332031 23.92164063 8.87179687 22.91359375 8.4375 21.875 C8.02757812 20.8953125 7.61765625 19.915625 7.1953125 18.90625 C5.70381864 15.27987278 4.28818294 11.62594493 2.89453125 7.9609375 C2.05836075 5.82512132 2.05836075 5.82512132 0 4 C0 2.68 0 1.36 0 0 Z " fill="#7B07A0" transform="translate(309,143)"/>
<path d="M0 0 C0.77279297 0.36351562 1.54558594 0.72703125 2.34179688 1.1015625 C3.11845703 1.44960938 3.89511719 1.79765625 4.6953125 2.15625 C9.19133312 4.21200879 13.24933554 6.48867797 17.27929688 9.3515625 C16.17718783 11.10285907 15.07252256 12.85254714 13.96679688 14.6015625 C13.35191406 15.57609375 12.73703125 16.550625 12.10351562 17.5546875 C10.57453928 19.89889963 8.9910871 22.13940282 7.27929688 24.3515625 C4.90726328 23.43335595 2.58380525 22.51144465 0.33007812 21.328125 C-5.68850975 18.28101229 -11.00618937 17.34752306 -17.72070312 18.3515625 C-23.13890537 20.80508804 -26.89814205 25.16819543 -29.72070312 30.3515625 C-30.54684769 34.05300452 -30.56024257 37.63229889 -30.52539062 41.4140625 C-30.53909698 42.44595703 -30.55280334 43.47785156 -30.56692505 44.54101562 C-30.60408286 47.81164719 -30.60051952 51.08075062 -30.59570312 54.3515625 C-30.61383973 56.57945067 -30.63464544 58.80731881 -30.65820312 61.03515625 C-30.70992049 66.47410739 -30.72828098 71.91238789 -30.72070312 77.3515625 C-37.25802526 76.71891842 -43.17994441 75.65971424 -49.72070312 74.3515625 C-49.72070312 49.6015625 -49.72070312 24.8515625 -49.72070312 -0.6484375 C-43.45070313 0.6715625 -37.18070312 1.9915625 -30.72070312 3.3515625 C-30.72070312 6.9815625 -30.72070312 10.6115625 -30.72070312 14.3515625 C-28.3683516 13.41476935 -28.3683516 13.41476935 -27.03320312 10.2265625 C-20.77542473 -1.14056304 -12.14492071 -5.46162115 0 0 Z " fill="#7A049F" transform="translate(383.720703125,296.6484375)"/>
<path d="M0 0 C3.5 1.75 3.5 1.75 6 4 C6.763125 4.61875 7.52625 5.2375 8.3125 5.875 C12.54001097 11.19853233 11.63069424 20.54971803 11 27 C8.42495702 36.81180168 3.755261 46.37161793 -5 52 C-9.99570902 54.44493386 -14.3788375 55.62457361 -20 55 C-22.02021832 54.04150226 -24.02379014 53.04622875 -26 52 C-26.22293923 45.84382857 -26.38599806 39.69001715 -26.49438477 33.53076172 C-26.53957205 31.43724638 -26.60093836 29.34401395 -26.67895508 27.25146484 C-26.78849792 24.23724669 -26.83923682 21.22678656 -26.87890625 18.2109375 C-26.92535782 17.27945892 -26.97180939 16.34798035 -27.01966858 15.38827515 C-27.02273211 11.42034955 -26.99331329 8.99776141 -24.11227417 6.1038208 C-16.37304383 0.78919958 -9.35067284 -1.04037337 0 0 Z " fill="#E5F9F9" transform="translate(287,305)"/>
<path d="M0 0 C7.18997804 0.58934246 12.81874067 2.04147473 20 4 C20 28.42 20 52.84 20 78 C8.66941015 76.86694102 8.66941015 76.86694102 4.9375 76 C4.20402344 75.835 3.47054688 75.67 2.71484375 75.5 C1 75 1 75 0 74 C-0.09443335 71.69946165 -0.11742128 69.39597827 -0.11352539 67.09350586 C-0.11367142 66.37159561 -0.11381744 65.64968536 -0.1139679 64.90589905 C-0.11326869 62.50885053 -0.10547595 60.11187877 -0.09765625 57.71484375 C-0.0957921 56.05717511 -0.09436818 54.39950593 -0.09336853 52.74183655 C-0.08954312 48.37045786 -0.07971265 43.99911219 -0.06866455 39.62774658 C-0.05845092 35.17045539 -0.05387101 30.71315889 -0.04882812 26.25585938 C-0.0380904 17.50389107 -0.02101371 8.75194964 0 0 Z " fill="#7C0BA2" transform="translate(399,143)"/>
<path d="M0 0 C7.18997804 0.58934246 12.81874067 2.04147473 20 4 C20 28.42 20 52.84 20 78 C8.66941015 76.86694102 8.66941015 76.86694102 4.9375 76 C4.20402344 75.835 3.47054687 75.67 2.71484375 75.5 C1 75 1 75 0 74 C-0.09443335 71.69946165 -0.11742128 69.39597827 -0.11352539 67.09350586 C-0.11367142 66.37159561 -0.11381744 65.64968536 -0.1139679 64.90589905 C-0.11326869 62.50885053 -0.10547595 60.11187877 -0.09765625 57.71484375 C-0.0957921 56.05717511 -0.09436818 54.39950593 -0.09336853 52.74183655 C-0.08954312 48.37045786 -0.07971265 43.99911219 -0.06866455 39.62774658 C-0.05845092 35.17045539 -0.05387101 30.71315889 -0.04882812 26.25585938 C-0.0380904 17.50389107 -0.02101371 8.75194964 0 0 Z " fill="#7C0AA2" transform="translate(251,598)"/>
<path d="M0 0 C10.1869783 1.13188648 10.1869783 1.13188648 13.9375 2 C14.66839844 2.165 15.39929688 2.33 16.15234375 2.5 C18 3 18 3 20 4 C20 28.42 20 52.84 20 78 C12 77 12 77 0 74 C0 49.58 0 25.16 0 0 Z " fill="#7D0BA2" transform="translate(412,295)"/>
<path d="M0 0 C8.3821525 -0.30769927 13.2773861 1.25237763 19.7734375 6.44921875 C26.62103549 15.05762765 27.50444716 27.94172225 27.26953125 38.58203125 C26.81935053 42.40001962 25.49727565 44.33770905 22.9609375 47.19921875 C22.47496094 47.84503906 21.98898437 48.49085938 21.48828125 49.15625 C16.48969574 55.525606 10.56210254 58.66549707 2.9609375 61.19921875 C-5.27228601 62.03524016 -11.53537288 62.0012476 -18.26953125 56.90234375 C-20.12380214 55.11765918 -21.62661754 53.3506829 -23.0390625 51.19921875 C-23.0390625 50.53921875 -23.0390625 49.87921875 -23.0390625 49.19921875 C-23.6990625 49.19921875 -24.3590625 49.19921875 -25.0390625 49.19921875 C-30.36754538 39.73164648 -30.52504102 28.57338717 -28.4140625 18.09765625 C-26.05910347 11.30612263 -21.23852564 5.71556373 -15.0703125 2.01953125 C-10.34124383 0.10971506 -5.03206295 0.32986531 0 0 Z M-18.3515625 12.13671875 C-21.48239904 15.96329674 -22.31873004 19.30503675 -22.0390625 24.19921875 C-22.6990625 24.19921875 -23.3590625 24.19921875 -24.0390625 24.19921875 C-24.84688719 34.31198711 -23.85958789 41.72580084 -18.0390625 50.19921875 C-14.41960325 54.24398616 -10.99017323 56.02501243 -5.5390625 56.51171875 C4.153675 56.29869155 11.05968703 51.87014719 17.96484375 45.41796875 C22.3394838 40.55535515 22.27241674 36.67021483 22.1484375 30.30078125 C21.70968544 23.0430909 20.17588295 17.17039147 15.9609375 11.19921875 C5.60985751 3.1718506 -8.57240535 3.94337087 -18.3515625 12.13671875 Z " fill="#8013A4" transform="translate(779.0390625,443.80078125)"/>
<path d="M0 0 C2.95104268 2.59115943 4.62779756 4.81746342 6.5625 8.25 C7.00980469 9.01054687 7.45710937 9.77109375 7.91796875 10.5546875 C12.01237658 18.28474597 12.86827487 25.60746132 11.5625 34.25 C8.934669 41.51236932 4.17613906 46.43673063 -2.4375 50.25 C-3.14261719 50.6625 -3.84773437 51.075 -4.57421875 51.5 C-12.80803185 55.52604104 -23.46483951 55.97543525 -32.25 53.4375 C-39.35749663 49.88375169 -45.5870037 43.30760251 -48.4375 35.875 C-50.70972845 27.39103015 -50.25454329 18.20538652 -46.4375 10.25 C-36.09137718 -5.3064005 -16.38855216 -8.34326292 0 0 Z M-40.4375 10.25 C-44.42980886 17.09395805 -45.73912498 24.61304143 -43.94140625 32.3984375 C-41.86503038 38.52198667 -38.48637455 43.21009422 -32.875 46.5625 C-25.25094092 50.30521991 -17.70576545 50.27536471 -9.6875 47.5625 C-2.41492971 44.61249966 2.05695376 40.79247423 5.6328125 33.6875 C7.86338396 27.83927903 7.41817832 23.44997519 5.16015625 17.64453125 C2.49894702 11.85138708 0.11044065 6.74469978 -5.4375 3.25 C-8.01938795 2.60256264 -8.01938795 2.60256264 -10.625 2.5625 C-15.30349665 2.31700168 -15.30349665 2.31700168 -17.4375 1.25 C-27.08775893 0.15582566 -34.15742531 2.71391037 -40.4375 10.25 Z " fill="#7F10A4" transform="translate(967.4375,450.75)"/>
<path d="M0 0 C4.03866893 2.61624465 7.20268677 5.47280535 9 10 C10.26026908 16.90724399 8.70041034 21.97772701 4.83203125 27.73046875 C0.82117558 32.6991407 -3.30685664 36.02160171 -9.6875 37.1875 C-13.25082222 37.36535946 -13.84656773 37.11340646 -16.875 34.875 C-17.57625 33.92625 -18.2775 32.9775 -19 32 C-19.598125 31.2575 -20.19625 30.515 -20.8125 29.75 C-23.05136602 24.56525764 -22.52612789 19.76407588 -20.9375 14.4375 C-16.52859157 6.6152431 -9.99433264 -1.83569375 0 0 Z " fill="#E4F6F8" transform="translate(586,306)"/>
<path d="M0 0 C4.99922389 0.71417484 8.40514396 1.3278946 12.9375 3.0625 C13.89527344 3.42472656 14.85304688 3.78695312 15.83984375 4.16015625 C16.90912109 4.57587891 16.90912109 4.57587891 18 5 C18.70458228 17.31061817 16.09108655 25.86141441 9.953125 36.41796875 C8 38 8 38 0 38 C0 25.46 0 12.92 0 0 Z " fill="#7A049F" transform="translate(534,89)"/>
<path d="M0 0 C4.62457735 2.31228867 6.23635855 10.77563155 7.8515625 15.48046875 C8.3184628 16.92991198 8.78211015 18.38040788 9.2421875 19.83203125 C10.35256989 23.00864066 11.77903685 26.0213579 13.23046875 29.0546875 C14 31 14 31 14 34 C5.09 34 -3.82 34 -13 34 C-12.13124978 28.7874987 -11.28528676 26.48267787 -9 22 C-8.5196174 20.63254726 -8.06312055 19.25657332 -7.625 17.875 C-2.78329146 2.78329146 -2.78329146 2.78329146 0 0 Z " fill="#E1EFF6" transform="translate(363,446)"/>
<path d="M0 0 C4.09586717 1.46244446 8.049762 3.18379862 12 5 C12 5.66 12 6.32 12 7 C9.92712158 8.52754717 7.85465984 9.92893982 5.6875 11.3125 C4.32330279 12.20041721 2.9600703 13.08981788 1.59765625 13.98046875 C0.49381592 14.70049072 0.49381592 14.70049072 -0.63232422 15.43505859 C-5.78059842 18.83786718 -10.84189856 22.37093985 -15.9152832 25.8840332 C-16.69347412 26.41988037 -17.47166504 26.95572754 -18.2734375 27.5078125 C-18.96872559 27.98879395 -19.66401367 28.46977539 -20.38037109 28.96533203 C-22 30 -22 30 -23 30 C-23.69481082 21.10256146 -22.30292187 13.06513461 -16.5625 6 C-11.33001382 1.91610835 -6.78942439 -1.09095024 0 0 Z " fill="#E2F3F7" transform="translate(592,612)"/>
<path d="M0 0 C-1.20798618 3.62395855 -2.19818728 4.0704977 -5.33984375 6.109375 C-6.23896484 6.69976562 -7.13808594 7.29015625 -8.06445312 7.8984375 C-9.01255859 8.50945312 -9.96066406 9.12046875 -10.9375 9.75 C-12.78072525 10.95193376 -14.62317548 12.1550569 -16.46484375 13.359375 C-17.37733887 13.95298828 -18.28983398 14.54660156 -19.22998047 15.15820312 C-22.88743429 17.59005855 -26.45164928 20.14413696 -30.00610352 22.72363281 C-32 24 -32 24 -34 24 C-34.52901387 16.27051956 -34.05004246 9.76191299 -30 3 C-21.18233424 -7.09225726 -11.00728755 -6.31899841 0 0 Z " fill="#E3F5F8" transform="translate(281,162)"/>
<path d="M0 0 C1.670625 0.9590625 1.670625 0.9590625 3.375 1.9375 C2.09505743 5.77732771 0.63255736 6.36568088 -2.7265625 8.5546875 C-3.77457031 9.24433594 -4.82257813 9.93398438 -5.90234375 10.64453125 C-7.00707031 11.35996094 -8.11179687 12.07539062 -9.25 12.8125 C-11.40950288 14.22557161 -13.56837296 15.63961084 -15.7265625 17.0546875 C-16.74782227 17.72081055 -17.76908203 18.38693359 -18.82128906 19.07324219 C-21.1850263 20.64495044 -23.48756208 22.26378984 -25.7734375 23.9453125 C-28.625 25.9375 -28.625 25.9375 -30.625 25.9375 C-30.20214753 16.24105535 -29.82635503 8.13885503 -22.625 0.9375 C-15.31215847 -4.40715216 -7.93329786 -3.91058322 0 0 Z " fill="#E4F6F8" transform="translate(432.625,615.0625)"/>
<path d="M0 0 C0.52663907 5.35798013 0.52663907 5.35798013 -1.80078125 8.1953125 C-7.88563561 12.87014618 -13.60949729 15.91035307 -21 18 C-21.61746094 18.19207031 -22.23492188 18.38414062 -22.87109375 18.58203125 C-31.69533134 20.31449624 -40.77479943 19.46324235 -49 16 C-47.7508258 12.54074837 -46.32472205 9.85306797 -44 7 C-43.44828125 7.15339844 -42.8965625 7.30679687 -42.328125 7.46484375 C-29.1803363 10.48707035 -17.52611235 5.23828632 -5.33740234 0.734375 C-3 0 -3 0 0 0 Z " fill="#E3F4F7" transform="translate(606,375)"/>
<path d="M0 0 C4.57676881 2.08034946 8.16458164 4.89561118 10.75 9.25 C10.75 10.57 10.75 11.89 10.75 13.25 C10.09 13.25 9.43 13.25 8.75 13.25 C8.440625 14.0853125 8.440625 14.0853125 8.125 14.9375 C6.14115431 18.27396774 3.99112336 20.13080395 0.75 22.25 C-4.37274745 21.82310438 -6.87615894 18.90711095 -10.05078125 15.19921875 C-11.55241604 12.75845079 -12.16154619 11.12917159 -12.25 8.25 C-9.16893582 4.03075447 -5.29671418 0.40743955 0 0 Z " fill="#7C0AA1" transform="translate(423.25,262.75)"/>
<path d="M0 0 C3.29718003 2.22367955 5.96042534 4.56492688 8 8 C8 9.32 8 10.64 8 12 C7.34 12 6.68 12 6 12 C5.773125 12.5775 5.54625 13.155 5.3125 13.75 C3.56973514 16.73759691 1.97330958 18.21601425 -1 20 C-4.49493644 20.12481916 -6.84090605 20.07695343 -9.48828125 17.6171875 C-10.71332391 16.12111771 -11.86075457 14.56239373 -13 13 C-13.66 12.67 -14.32 12.34 -15 12 C-15.4375 9.9375 -15.4375 9.9375 -15 7 C-10.50473692 1.39566938 -7.31732059 -1.86519937 0 0 Z " fill="#7C0AA1" transform="translate(413,112)"/>
<path d="M0 0 C3.03727954 2.35456361 5.82317855 4.82030688 8 8 C7.73066288 12.31755557 4.81867517 14.91287958 2 18 C-1 20 -1 20 -4.25 20.0625 C-9.26002088 18.64299408 -11.95039992 16.16097037 -15 12 C-15.875 9.5 -15.875 9.5 -15 7 C-10.53959203 1.61992029 -7.2298603 -2.27606713 0 0 Z " fill="#7C09A1" transform="translate(265,567)"/>
<path d="M0 0 C0.66 0.33 1.32 0.66 2 1 C0.92878906 1.59554687 -0.14242187 2.19109375 -1.24609375 2.8046875 C-7.04740994 6.7831497 -11.98520388 11.09798551 -13.47363281 18.28790283 C-15.19632787 31.37479781 -14.53179743 44.84533802 -14 58 C-14.33 58 -14.66 58 -15 58 C-15.17380102 52.02277289 -15.30042298 46.04703444 -15.38452148 40.06787109 C-15.41959766 38.03668581 -15.46727355 36.00567567 -15.52807617 33.97509766 C-15.6135659 31.04545805 -15.65281564 28.11816474 -15.68359375 25.1875 C-15.71972275 24.28821777 -15.75585175 23.38893555 -15.79307556 22.46240234 C-15.79694701 16.16307658 -14.15901296 13.09250506 -9.74487305 8.61767578 C-9.16906494 8.08384277 -8.59325684 7.55000977 -8 7 C-7.19691406 6.236875 -6.39382812 5.47375 -5.56640625 4.6875 C-4.57447266 3.8521875 -4.57447266 3.8521875 -3.5625 3 C-2.88316406 2.4225 -2.20382813 1.845 -1.50390625 1.25 C-1.00761719 0.8375 -0.51132813 0.425 0 0 Z " fill="#CCBFE4" transform="translate(191,619)"/>
<path d="M0 0 C0.66 0.33 1.32 0.66 2 1 C0.61518433 2.01936646 0.61518433 2.01936646 -0.79760742 3.05932617 C-6.34602255 7.55721303 -11.00803558 11.79145879 -12.16650391 19.10400391 C-12.65408013 24.8444626 -12.49795889 30.56137715 -12.3125 36.3125 C-12.29547523 38.32482821 -12.28436176 40.33721552 -12.27929688 42.34960938 C-12.25429901 47.23642207 -12.14950348 52.11547589 -12 57 C-12.33 57 -12.66 57 -13 57 C-13.14878601 50.86200474 -13.25742416 44.72506849 -13.32958984 38.58569336 C-13.35968519 36.49924424 -13.40057226 34.41292083 -13.45263672 32.3269043 C-13.52577166 29.32048476 -13.5595289 26.31574331 -13.5859375 23.30859375 C-13.61690521 22.38227646 -13.64787292 21.45595917 -13.67977905 20.50157166 C-13.68280226 14.62852875 -12.65600575 11.57227857 -8.49865723 7.36376953 C-7.7568219 6.68870361 -7.7568219 6.68870361 -7 6 C-5.95199219 5.01193359 -5.95199219 5.01193359 -4.8828125 4.00390625 C-4.30273438 3.52824219 -3.72265625 3.05257812 -3.125 2.5625 C-2.52945312 2.06878906 -1.93390625 1.57507813 -1.3203125 1.06640625 C-0.88460938 0.71449219 -0.44890625 0.36257813 0 0 Z " fill="#D0CBE8" transform="translate(326,620)"/>
<path d="M0 0 C0.66 0.33 1.32 0.66 2 1 C-2.95 5.95 -7.9 10.9 -13 16 C-13.33 15.01 -13.66 14.02 -14 13 C-4.58997722 3.40546697 -4.58997722 3.40546697 0 0 Z " fill="#D4D4EC" transform="translate(191,619)"/>
<path d="M0 0 C0.66 0.33 1.32 0.66 2 1 C-2.29 5.29 -6.58 9.58 -11 14 C-11 10.30159372 -10.17133056 9.68584567 -7.75 7 C-7.14671875 6.319375 -6.5434375 5.63875 -5.921875 4.9375 C-4.06233388 3.06284066 -2.15205789 1.52358081 0 0 Z " fill="#8D31B0" transform="translate(561,297)"/>
<path d="M0 0 C0.66 0.33 1.32 0.66 2 1 C-2.29 5.29 -6.58 9.58 -11 14 C-11 10.30159372 -10.17133056 9.68584567 -7.75 7 C-7.14671875 6.319375 -6.5434375 5.63875 -5.921875 4.9375 C-4.06233388 3.06284066 -2.15205789 1.52358081 0 0 Z " fill="#D2CFEA" transform="translate(90,582)"/>
<path d="M0 0 C0.66 0.33 1.32 0.66 2 1 C0.21427748 2.83947337 -1.57802449 4.67157741 -3.375 6.5 C-3.88289062 7.02464844 -4.39078125 7.54929687 -4.9140625 8.08984375 C-6.23832604 9.43153181 -7.61605865 10.71995815 -9 12 C-9.66 12 -10.32 12 -11 12 C-9.49650623 8.33213607 -7.36271208 6.31089607 -4.375 3.75 C-3.14910156 2.69039063 -3.14910156 2.69039063 -1.8984375 1.609375 C-1.27195313 1.07828125 -0.64546875 0.5471875 0 0 Z " fill="#8B2CAE" transform="translate(150,271)"/>
<path d="M0 0 C0.66 0.33 1.32 0.66 2 1 C-2.29 5.29 -6.58 9.58 -11 14 C-11 9.95136013 -9.70680732 8.98442858 -7 6 C-4.72143146 3.93123542 -2.38262895 1.94759838 0 0 Z " fill="#D5D4EC" transform="translate(326,620)"/>
<path d="M0 0 C0.66 0.33 1.32 0.66 2 1 C-1.96 4.96 -5.92 8.92 -10 13 C-10 8.41771462 -7.08388033 6.1816619 -4 3 C-1.625 1.0625 -1.625 1.0625 0 0 Z " fill="#8E33B1" transform="translate(245,146)"/>
<path d="M0 0 C1 2 1 2 0.22265625 4.3828125 C-0.16019531 5.28773438 -0.54304688 6.19265625 -0.9375 7.125 C-1.31777344 8.03507813 -1.69804688 8.94515625 -2.08984375 9.8828125 C-2.54037109 10.93082031 -2.54037109 10.93082031 -3 12 C-6 12 -6 12 -8 11 C-5.36 7.37 -2.72 3.74 0 0 Z " fill="#C9B9E2" transform="translate(1030,515)"/>
<path d="M0 0 C0.66 0.33 1.32 0.66 2 1 C-1.96 4.96 -5.92 8.92 -10 13 C-10 8.83248505 -7.76127698 6.85829482 -5 4 C-3.36927384 2.62294236 -1.7133562 1.27277889 0 0 Z " fill="#8C2FAF" transform="translate(68,572)"/>
<path d="M0 0 C0.66 0.33 1.32 0.66 2 1 C-1.63 4.63 -5.26 8.26 -9 12 C-9 9 -9 9 -6.75 6.5625 C-5.8425 5.716875 -4.935 4.87125 -4 4 C-3.236875 3.236875 -2.47375 2.47375 -1.6875 1.6875 C-1.130625 1.130625 -0.57375 0.57375 0 0 Z " fill="#8E32B0" transform="translate(399,602)"/>
<path d="M0 0 C0.66 0.33 1.32 0.66 2 1 C0.88121617 2.17262904 -0.24523051 3.33795138 -1.375 4.5 C-2.00148438 5.1496875 -2.62796875 5.799375 -3.2734375 6.46875 C-5 8 -5 8 -7 8 C-5.50902342 4.2047869 -3.24299151 2.38957269 0 0 Z " fill="#D3CFEA" transform="translate(364,315)"/>
<path d="M0 0 C0.66 0.33 1.32 0.66 2 1 C2 1.99 2 2.98 2 4 C1.01 4.66 0.02 5.32 -1 6 C-2.19232613 8.05003955 -2.19232613 8.05003955 -3 10 C-3.33 9.34 -3.66 8.68 -4 8 C-3.22265625 6.0546875 -3.22265625 6.0546875 -2.0625 3.875 C-1.49208984 2.78832031 -1.49208984 2.78832031 -0.91015625 1.6796875 C-0.60980469 1.12539063 -0.30945313 0.57109375 0 0 Z " fill="#C8B6E1" transform="translate(363,446)"/>
<path d="M0 0 C0.66 0.33 1.32 0.66 2 1 C1.0479279 2.00596297 0.08812654 3.00461563 -0.875 4 C-1.40867187 4.556875 -1.94234375 5.11375 -2.4921875 5.6875 C-4 7 -4 7 -6 7 C-4.60667426 3.63279613 -3.0210714 2.0140476 0 0 Z " fill="#D4D2EB" transform="translate(413,614)"/>
</svg>
